<?xml version="1.0" standalone="no"?>
<!DOCTYPE svg PUBLIC "-//W3C//DTD SVG 20010904//EN"
 "http://www.w3.org/TR/2001/REC-SVG-20010904/DTD/svg10.dtd">
<svg version="1.0" xmlns="http://www.w3.org/2000/svg"
 width="407.000000pt" height="613.000000pt" viewBox="0 0 407.000000 613.000000"
 preserveAspectRatio="xMidYMid meet">

<g transform="translate(0.000000,613.000000) scale(0.100000,-0.100000)"
fill="#ffffff" stroke="none">
<path d="M1718 4315 c-2 -2 -23 -6 -47 -9 -51 -7 -67 -16 -28 -16 29 0 44 -17
29 -32 -5 -5 -47 -12 -93 -15 -46 -3 -95 -6 -109 -7 -14 -2 -32 -4 -41 -4 -8
-1 -24 -10 -35 -20 -10 -10 -22 -19 -27 -20 -19 -4 -75 -37 -103 -61 -32 -27
-41 -34 -112 -90 -38 -30 -122 -130 -122 -146 0 -3 -12 -23 -26 -45 -19 -28
-29 -61 -35 -112 -5 -40 -13 -100 -18 -133 -15 -96 -13 -218 4 -266 9 -24 28
-55 44 -69 41 -35 87 -184 96 -305 3 -49 8 -105 12 -123 l6 -34 23 24 c12 12
44 39 69 58 25 19 62 54 81 78 36 42 145 106 160 94 5 -4 4 0 -2 8 -12 18 -18
141 -7 155 15 19 64 46 73 40 6 -3 10 1 10 9 0 9 5 16 10 16 6 0 10 7 10 15 0
8 6 15 14 15 16 0 31 34 21 49 -7 12 25 51 41 51 7 0 14 4 16 9 2 5 25 12 51
15 61 8 84 23 91 56 6 31 48 85 80 102 11 7 41 15 66 19 25 4 70 15 100 24 30
9 61 17 68 17 6 1 12 5 12 10 0 4 7 8 15 8 8 0 15 -4 15 -10 0 -5 5 -10 12
-10 6 0 8 3 5 7 -4 3 2 13 13 20 17 12 23 12 35 1 46 -41 76 -54 140 -57 27
-2 76 -14 108 -27 31 -13 74 -28 95 -32 20 -4 37 -13 37 -19 0 -6 3 -14 6 -18
4 -3 0 -20 -9 -38 -25 -50 -19 -92 20 -136 38 -45 78 -68 78 -47 0 9 26 18 83
26 152 23 204 45 269 111 32 33 68 78 80 102 57 109 136 313 125 324 -3 2 -12
-3 -20 -12 -18 -17 -31 -20 -21 -4 4 7 -2 6 -17 -1 -29 -16 -135 -20 -169 -7
-14 5 -81 9 -150 7 -193 -3 -232 -1 -246 13 -4 4 -16 0 -26 -10 -13 -11 -18
-12 -18 -3 0 9 -3 10 -13 1 -15 -12 -27 -5 -27 15 0 8 21 20 48 28 44 14 45
15 14 15 -28 1 -31 3 -23 19 11 21 -25 61 -106 114 -29 19 -50 38 -46 41 3 4
-1 7 -11 7 -9 0 -31 15 -49 34 -18 19 -43 37 -57 41 -14 4 -45 19 -70 34 -25
14 -47 26 -50 26 -3 1 -25 10 -50 21 -98 43 -220 68 -280 57 -25 -5 -62 -6
-82 -3 -21 4 -39 6 -40 5z m-251 -663 c19 -12 63 -101 63 -127 0 -25 -37 -58
-53 -48 -6 3 -1 10 11 14 28 11 28 19 -5 86 -27 54 -53 78 -61 55 -2 -7 -8
-12 -13 -12 -6 0 -5 8 1 20 11 21 36 26 57 12z m-307 -194 c0 -12 -3 -18 -6
-15 -4 3 -18 -3 -32 -13 -36 -29 -40 -16 -6 19 36 35 44 37 44 9z m19 -78 c11
-32 10 -37 -14 -57 -14 -13 -34 -23 -43 -23 -12 0 -7 9 17 28 32 27 33 30 22
67 -12 46 1 35 18 -15z"/>
<path d="M1503 4263 c9 -2 23 -2 30 0 6 3 -1 5 -18 5 -16 0 -22 -2 -12 -5z"/>
<path d="M1864 3566 c-20 -16 -14 -21 31 -28 13 -2 21 -12 23 -30 2 -14 12
-34 23 -44 27 -24 24 -32 -13 -36 -35 -3 -51 -33 -26 -49 22 -14 34 -10 67 20
36 34 41 81 15 136 -21 45 -80 60 -120 31z"/>
<path d="M1774 3420 c3 -15 -5 -46 -20 -78 -23 -49 -24 -58 -15 -104 11 -51
49 -109 126 -195 37 -41 45 -45 94 -47 37 -2 58 -8 67 -20 18 -26 35 -136 26
-176 -5 -19 -5 -50 -1 -69 10 -48 -12 -72 -43 -45 -26 23 -18 8 29 -58 19 -27
31 -48 26 -49 -4 -1 -21 0 -37 1 -18 1 -26 -2 -22 -9 4 -6 3 -11 -3 -11 -5 0
-12 6 -14 13 -3 6 -6 2 -6 -10 -1 -14 -7 -23 -17 -23 -8 0 -12 5 -9 10 3 6 -3
10 -14 10 -11 0 -26 7 -35 15 -19 20 -42 19 -94 -5 -37 -17 -107 -63 -122 -81
-3 -3 -24 -19 -47 -36 -23 -17 -40 -32 -38 -35 2 -2 -5 -4 -15 -5 -26 -2 -25
12 1 31 19 13 20 14 2 18 -17 4 0 14 97 57 14 6 49 24 78 40 48 25 51 29 30
34 -52 14 -203 0 -283 -27 -89 -29 -88 -29 -82 -18 3 4 -35 8 -84 8 -49 1
-124 3 -167 4 -106 4 -200 -8 -295 -36 -44 -13 -97 -24 -116 -24 -20 0 -49 -7
-65 -15 -15 -8 -34 -15 -42 -15 -20 0 -86 -32 -117 -57 -16 -13 -33 -21 -38
-18 -21 14 -162 -16 -222 -47 -34 -17 -86 -35 -114 -39 -29 -4 -80 -18 -113
-31 l-61 -23 2 -483 1 -483 79 5 c52 4 79 2 79 -5 0 -5 -5 -7 -10 -4 -6 3 -12
0 -15 -7 -3 -8 -16 -15 -30 -16 -19 -1 -23 2 -19 16 5 15 4 16 -8 1 -7 -9 -28
-20 -46 -23 l-32 -8 0 -624 0 -624 524 0 c420 0 530 3 557 14 19 7 47 16 63
20 25 6 28 5 23 -13 -5 -20 -1 -21 68 -21 58 0 76 4 83 16 7 13 19 15 61 9 28
-4 53 -11 57 -16 3 -5 30 -9 60 -9 52 0 54 1 54 28 0 15 5 44 11 65 9 33 14
37 42 37 42 0 81 11 69 19 -6 4 -4 11 4 19 12 11 14 10 14 -6 0 -11 14 -25 38
-36 36 -18 36 -19 15 -29 -13 -6 -23 -19 -23 -31 0 -12 -3 -31 -6 -43 -6 -22
-4 -23 50 -23 50 0 57 3 73 27 9 16 18 29 19 31 1 2 19 -5 40 -14 100 -45 89
-44 581 -44 l473 0 0 33 c-1 17 1 117 3 220 4 170 9 209 21 196 5 -4 26 -345
26 -411 l0 -38 70 0 70 0 0 68 c-1 144 -19 640 -26 680 -6 38 -4 42 17 51 13
5 33 18 43 30 21 24 36 27 36 9 0 -13 38 -92 63 -133 6 -11 46 -54 87 -96 69
-70 79 -77 126 -83 50 -6 52 -7 58 -44 3 -20 6 -93 6 -162 0 -98 -3 -131 -16
-148 -13 -18 -13 -22 -1 -22 8 0 31 27 51 60 20 33 43 63 50 67 7 5 18 18 25
31 15 29 31 29 24 0 -3 -17 -2 -19 5 -9 5 7 15 17 21 20 8 5 6 15 -9 33 -23
30 -26 48 -7 48 7 0 21 -16 32 -36 10 -19 31 -42 46 -49 26 -14 27 -13 60 38
18 29 37 60 41 69 23 55 161 208 188 208 5 0 10 8 10 18 0 15 -6 18 -30 14
-27 -4 -30 -2 -30 22 0 19 8 32 30 44 l30 17 0 258 c0 216 -2 261 -15 273 -13
14 -17 14 -31 0 -8 -9 -20 -16 -25 -16 -6 0 -8 -4 -5 -9 8 -12 -20 -22 -39
-15 -8 4 -12 10 -9 15 3 5 -12 9 -34 9 -62 0 -70 17 -61 130 3 52 3 113 -2
136 -19 92 -75 179 -177 277 -67 65 -68 77 -2 77 57 0 109 -19 148 -54 65 -58
114 -73 76 -24 -18 24 -80 68 -126 89 -16 7 -28 16 -28 20 0 16 -53 20 -69 4
-10 -8 -27 -15 -38 -15 -12 0 -24 -6 -26 -12 -7 -16 -45 28 -52 60 -3 12 -7
33 -10 47 -3 15 -21 35 -44 49 -21 14 -48 38 -60 55 -27 38 -81 164 -81 190 0
11 -12 28 -26 38 -15 10 -51 40 -81 68 l-55 50 7 52 c6 51 5 53 -21 63 -19 8
-30 8 -38 0 -5 -5 -23 -10 -38 -10 -23 0 -28 -4 -28 -26 0 -14 -4 -23 -10 -19
-6 3 -10 -4 -11 -17 0 -18 -2 -19 -7 -6 -8 18 -55 58 -69 58 -4 0 -1 -5 7 -10
13 -8 12 -10 -2 -10 -10 0 -18 4 -18 9 0 10 -26 9 -36 -2 -14 -14 -33 -7 -61
22 -26 25 -36 29 -77 26 -26 -2 -50 -6 -53 -9 -4 -3 -17 -6 -30 -6 -12 0 -32
-9 -43 -20 -27 -27 -27 -28 -105 12 -40 21 -169 57 -264 73 l-76 14 67 -5 c37
-3 90 -12 119 -19 28 -8 66 -11 83 -8 31 6 136 70 136 84 0 4 8 5 19 2 10 -3
22 0 25 6 4 6 16 11 27 11 12 0 35 16 52 36 40 45 69 57 102 42 31 -14 38 -8
29 26 -4 17 -13 26 -25 26 -25 0 -24 27 1 35 15 5 20 15 20 39 0 27 7 39 36
61 35 26 36 29 19 42 -22 15 -155 18 -155 3 0 -5 14 -25 30 -43 32 -37 39 -74
15 -83 -8 -4 -15 -12 -15 -19 0 -7 -10 -32 -22 -55 -19 -36 -26 -41 -53 -38
-16 1 -33 7 -37 13 -5 6 -8 2 -8 -8 0 -16 -6 -17 -52 -11 -29 4 -56 11 -59 17
-4 5 -14 7 -23 4 -8 -3 -18 -2 -21 3 -9 15 -25 12 -25 -5 0 -8 -4 -15 -10 -15
-9 0 -14 23 -13 58 1 7 -6 12 -16 10 -9 -1 -22 1 -28 5 -9 6 -13 2 -14 -10 0
-15 -2 -14 -12 5 -7 17 -8 25 0 30 7 5 6 11 -3 20 -12 11 -14 9 -14 -9 0 -17
-3 -19 -13 -10 -8 6 -17 8 -20 4 -4 -3 -15 1 -25 11 -11 9 -26 14 -36 10 -12
-5 -15 -2 -10 9 4 12 1 14 -15 10 -15 -4 -21 -1 -21 11 0 9 -5 16 -12 16 -6 0
-3 6 7 14 15 11 17 17 7 28 -6 8 -22 14 -34 13 -18 -1 -24 -9 -26 -33 l-3 -31
-55 54 c-30 30 -55 60 -56 67 0 7 -2 20 -2 28 -1 11 -11 14 -44 12 -40 -4 -45
-1 -106 60 -75 76 -105 121 -140 213 -15 39 -24 59 -22 45z m442 -826 c-8 -31
11 -40 101 -47 40 -3 80 -12 88 -19 9 -7 22 -19 30 -25 7 -7 18 -13 24 -13 6
0 11 -4 11 -10 0 -5 -5 -10 -11 -10 -5 0 -7 -5 -4 -10 4 -6 12 -10 18 -9 14 3
67 -21 67 -30 0 -3 -30 -7 -67 -8 -47 -1 -62 2 -50 8 9 6 17 13 17 17 0 9 -77
41 -107 44 -32 4 -30 -14 5 -32 45 -25 102 -77 102 -95 0 -17 -25 -21 -35 -5
-3 6 -16 10 -27 10 -12 0 -18 3 -15 7 6 6 -14 21 -53 39 -8 4 -18 11 -21 16
-3 4 -36 40 -73 79 -49 51 -73 68 -86 64 -15 -5 -16 -10 -7 -35 12 -32 3 -50
-15 -32 -9 9 -16 4 -30 -18 -13 -23 -25 -30 -48 -30 -21 0 -30 5 -30 16 0 12
7 14 28 9 33 -7 46 12 59 85 9 49 24 57 96 57 35 1 38 -1 33 -23z m19 -14 c3
-5 1 -10 -4 -10 -6 0 -11 5 -11 10 0 6 2 10 4 10 3 0 8 -4 11 -10z m-330 -30
c-3 -5 -14 -10 -23 -10 -15 0 -15 2 -2 10 20 13 33 13 25 0z m945 0 c0 -5 -4
-10 -9 -10 -6 0 -13 5 -16 10 -3 6 1 10 9 10 9 0 16 -4 16 -10z m-880 -36 c0
-8 -4 -12 -10 -9 -5 3 -10 10 -10 16 0 5 5 9 10 9 6 0 10 -7 10 -16z m-645 -3
c-6 -5 -23 -12 -40 -16 -29 -6 -29 -6 -11 9 21 17 67 23 51 7z m497 -36 c-17
-14 -34 -25 -38 -25 -11 1 48 50 59 50 5 0 -5 -11 -21 -25z m1256 -35 c7 -11
8 -20 2 -20 -5 0 -14 9 -20 20 -6 11 -7 20 -3 20 5 0 14 -9 21 -20z m-1339
-25 c-24 -12 -46 -20 -48 -19 -7 5 28 34 51 43 44 16 41 -2 -3 -24z m781 -15
c0 -5 -7 -10 -15 -10 -8 0 -15 5 -15 10 0 6 7 10 15 10 8 0 15 -4 15 -10z
m-969 -40 c-38 -33 -42 -35 -38 -18 3 17 39 47 57 48 9 0 1 -12 -19 -30z
m-116 -570 c-8 -38 12 -127 30 -134 14 -5 95 -146 95 -165 0 -6 16 -34 35 -62
36 -53 47 -96 21 -86 -7 3 -18 1 -24 -5 -10 -10 -71 89 -103 167 -25 62 -80
168 -97 187 -14 17 -17 16 -49 -12 -18 -17 -41 -30 -49 -30 -18 0 -134 -63
-181 -98 -18 -13 -47 -32 -65 -41 -18 -10 -47 -26 -65 -37 -25 -15 -35 -16
-44 -7 -15 15 10 47 56 70 16 9 62 37 102 64 39 26 84 51 100 55 15 4 49 19
76 35 26 16 51 29 56 29 4 0 28 22 52 49 52 58 63 62 54 21z m-184 -482 c12
-23 16 -39 9 -43 -14 -8 -30 3 -30 21 0 8 -7 28 -15 44 l-15 30 -72 -56 c-76
-58 -109 -65 -43 -8 22 19 60 53 85 76 l45 41 8 -34 c5 -19 18 -51 28 -71z
m-1113 59 c10 19 20 22 67 21 38 -1 55 -6 55 -15 0 -11 5 -10 23 1 15 10 35
13 59 10 32 -6 36 -9 28 -28 -4 -11 -14 -19 -22 -17 -7 2 -76 3 -153 3 -119 1
-141 3 -147 17 -6 14 -7 14 -7 -1 -1 -10 -5 -18 -10 -18 -5 0 -7 9 -4 20 4 16
13 20 39 18 18 -1 37 1 41 6 4 4 10 -3 14 -16 l5 -23 12 22z m73 -84 c1 -15 2
-16 6 -2 3 13 18 17 63 18 33 0 60 -3 60 -8 0 -26 -13 -38 -35 -33 -14 2 -22
8 -20 12 3 5 1 11 -5 15 -6 3 -12 0 -15 -7 -8 -21 -79 -17 -83 5 -2 10 3 17
12 17 9 0 17 -8 17 -17z m194 5 c11 1 23 -4 27 -11 6 -9 8 -9 8 1 0 6 6 12 14
12 10 0 13 -8 11 -21 -6 -29 -12 -34 -27 -22 -7 6 -23 9 -35 7 -17 -3 -23 1
-23 14 -1 16 -1 16 -14 -1 -12 -16 -13 -15 -13 8 0 20 3 25 16 19 9 -4 25 -6
36 -6z m143 -15 c-2 -9 -11 -17 -20 -19 -20 -3 -20 -2 -12 20 8 21 36 21 32
-1z m90 1 c20 -8 38 -15 40 -15 12 3 22 -1 22 -9 0 -5 -7 -10 -15 -10 -8 0
-15 -5 -15 -10 0 -7 6 -7 20 0 11 6 20 15 20 20 0 6 7 10 16 10 8 0 12 -5 8
-11 -3 -6 0 -15 7 -20 11 -8 8 -15 -16 -34 -32 -26 -145 -69 -145 -55 0 4 7
10 15 14 8 3 15 11 15 18 0 9 -3 9 -11 -2 -9 -12 -10 -12 -7 -1 3 8 19 22 36
30 34 17 41 31 17 31 -9 0 -18 7 -21 15 -5 11 -11 12 -24 5 -27 -14 -30 -13
-30 15 0 29 15 32 68 9z m-142 -21 c-10 -10 -19 5 -10 18 6 11 8 11 12 0 2 -7
1 -15 -2 -18z m-65 -239 c-15 -12 -44 -25 -66 -28 -21 -4 -42 -11 -46 -17 -4
-8 -8 -8 -13 -1 -4 6 4 16 16 23 13 7 29 20 36 30 6 9 25 20 42 24 16 4 33 12
37 18 4 7 9 4 13 -8 5 -13 -1 -26 -19 -41z m1414 -60 c-16 -12 -21 -12 -24 -2
-2 7 -11 18 -19 24 -13 10 -13 13 4 22 15 9 23 7 39 -9 20 -20 20 -20 0 -35z
m-1015 -9 c-7 -8 -17 -15 -22 -15 -5 0 -42 -16 -81 -35 -74 -37 -87 -41 -87
-26 0 11 191 103 199 96 2 -3 -2 -11 -9 -20z m725 -95 c-7 -25 -14 -38 -15
-30 -1 11 -3 12 -7 2 -4 -10 -8 -10 -19 -1 -11 9 -14 8 -14 -5 0 -9 -4 -16 -9
-16 -8 0 2 67 11 74 5 5 63 24 65 22 1 -1 -4 -22 -12 -46z m-105 -14 c0 -16
-59 -46 -89 -46 -12 0 -31 -10 -43 -22 -13 -13 -27 -23 -33 -23 -14 -1 -7 -27
12 -40 11 -8 14 -20 9 -38 -6 -24 -3 -27 19 -27 28 0 29 -3 15 -31 -15 -28
-36 -24 -75 15 -38 36 -43 53 -20 62 8 4 15 12 15 20 0 8 -7 14 -15 14 -19 0
-20 49 -2 74 9 12 48 27 103 41 92 23 104 23 104 1z m-730 10 c0 -13 -23 -66
-30 -66 -4 0 -14 7 -21 16 -11 14 -10 19 10 35 21 17 41 25 41 15z m-420 -36
c0 -5 -4 -10 -10 -10 -5 0 -10 5 -10 10 0 6 5 10 10 10 6 0 10 -4 10 -10z
m3567 -68 c1 -23 -3 -42 -8 -42 -5 0 -9 -5 -9 -10 0 -6 -12 -22 -26 -37 -14
-14 -23 -31 -20 -39 3 -7 1 -16 -4 -19 -6 -4 -8 29 -6 86 3 95 9 107 49 104
19 -1 22 -8 24 -43z m-2677 25 c0 -8 -7 -14 -15 -14 -25 0 -17 17 13 26 1 1 2
-5 2 -12z m2758 -4 c-4 -20 -29 -25 -40 -8 -13 18 -9 25 18 25 19 0 25 -4 22
-17z m-3271 -59 c-3 -3 -12 -4 -19 -1 -8 3 -5 6 6 6 11 1 17 -2 13 -5z m1243
2 c0 -3 -4 -8 -10 -11 -5 -3 -10 -1 -10 4 0 6 5 11 10 11 6 0 10 -2 10 -4z
m-1490 -16 c0 -13 -28 -25 -38 -16 -3 4 0 11 8 16 20 13 30 12 30 0z m1510 0
c0 -5 -5 -10 -11 -10 -5 0 -7 5 -4 10 3 6 8 10 11 10 2 0 4 -4 4 -10z m-996
-45 c-1 -5 -12 -15 -24 -22 -31 -15 -43 -39 -36 -69 4 -14 2 -24 -4 -24 -5 0
-10 11 -10 25 0 20 -5 25 -27 26 -16 0 -22 3 -15 6 10 4 9 8 -4 17 -11 9 -14
19 -9 35 6 20 12 22 68 19 34 -2 61 -7 61 -13z m-624 -25 c0 -5 -5 -10 -11
-10 -5 0 -7 5 -4 10 3 6 8 10 11 10 2 0 4 -4 4 -10z m645 -64 c0 -20 -26 -29
-51 -19 -20 7 -17 31 4 36 30 8 47 2 47 -17z m2832 -8 c-3 -8 -6 -5 -6 6 -1
11 2 17 5 13 3 -3 4 -12 1 -19z m-2287 -15 c17 -22 20 -36 15 -67 -3 -22 -11
-46 -17 -53 -7 -9 -7 -17 2 -28 9 -11 15 -13 20 -5 5 8 12 7 23 -4 8 -9 20
-16 24 -16 5 0 22 -13 38 -30 l28 -29 -27 -11 c-15 -5 -36 -10 -46 -10 -10 0
-22 -4 -25 -10 -3 -5 -1 -10 4 -10 6 0 11 -4 11 -8 0 -11 -152 -3 -164 8 -4 4
-4 29 2 54 11 51 9 56 -19 49 -14 -4 -19 -14 -19 -43 0 -56 -11 -100 -25 -100
-6 0 -21 11 -34 24 -20 22 -22 31 -20 155 l2 131 26 0 c14 0 46 7 71 14 72 23
105 20 130 -11z m-1070 -23 c0 -5 -2 -10 -4 -10 -3 0 -8 5 -11 10 -3 6 -1 10
4 10 6 0 11 -4 11 -10z m804 -107 c-7 -135 -18 -173 -44 -166 -15 4 -20 0 -20
-15 0 -24 -16 -38 -53 -47 -26 -7 -31 -15 -28 -42 1 -8 -76 -33 -104 -33 -3 0
-5 20 -5 44 0 40 2 44 25 44 14 0 25 -3 25 -7 0 -3 11 -7 24 -7 23 -2 23 -1 9
25 -13 23 -13 36 4 120 16 78 24 96 41 102 25 9 26 7 22 -102 -2 -68 5 -84 29
-70 15 10 30 119 23 177 -4 35 -1 44 23 62 15 12 29 22 32 22 2 0 1 -48 -3
-107z m-264 67 c0 -5 -4 -10 -10 -10 -5 0 -10 5 -10 10 0 6 5 10 10 10 6 0 10
-4 10 -10z m-237 -22 c6 -19 -11 -48 -28 -48 -8 0 -15 5 -15 10 0 6 -7 10 -15
10 -15 0 -21 21 -8 33 11 12 61 8 66 -5z m1033 -100 c0 -11 -7 -18 -18 -18
-17 0 -25 20 -13 32 12 11 31 3 31 -14z m-981 -74 c1 -32 -16 -40 -55 -24 -28
12 -28 13 -14 35 29 44 66 37 69 -11z m851 -40 c38 -18 47 -40 12 -29 -13 3
-33 9 -45 12 -13 3 -23 12 -23 19 0 18 14 18 56 -2z m-1121 -84 c17 -8 34 -21
38 -27 4 -7 17 -13 28 -13 11 0 18 -4 15 -9 -7 -10 -72 1 -103 18 -20 10 -35
58 -15 49 4 -2 21 -10 37 -18z m285 -8 c0 -15 -11 -21 -27 -15 -12 5 -12 7 -1
14 17 11 28 11 28 1z"/>
<path d="M645 1250 c-3 -5 -1 -10 4 -10 6 0 11 5 11 10 0 6 -2 10 -4 10 -3 0
-8 -4 -11 -10z"/>
<path d="M1376 474 c-8 -20 -8 -54 0 -54 20 0 44 24 44 45 0 29 -34 36 -44 9z"/>
<path d="M1952 3364 c-30 -21 -28 -41 9 -59 17 -9 40 -32 51 -51 14 -24 24
-32 31 -25 12 12 -16 93 -38 111 -8 6 -11 18 -8 26 7 19 -17 18 -45 -2z"/>
<path d="M1850 3346 c0 -26 39 -86 56 -86 8 0 14 5 14 10 0 6 -4 10 -10 10 -5
0 -10 6 -10 13 0 6 -11 26 -25 42 -20 25 -24 27 -25 11z"/>
<path d="M2625 2800 c-3 -5 -1 -10 4 -10 6 0 11 5 11 10 0 6 -2 10 -4 10 -3 0
-8 -4 -11 -10z"/>
<path d="M2842 2681 c-13 -3 -24 -10 -25 -16 -3 -14 43 -19 56 -6 16 16 -3 29
-31 22z"/>
<path d="M1035 2656 c-73 -14 -85 -21 -115 -70 l-24 -39 25 6 c84 23 166 29
306 24 94 -4 153 -2 153 3 0 6 5 10 11 10 5 0 7 -5 3 -11 -4 -8 1 -9 15 -4 12
3 36 8 54 10 18 3 46 7 62 10 17 3 61 8 98 12 45 4 65 9 58 16 -5 5 -38 7 -78
3 -218 -19 -212 -20 -338 13 -130 34 -141 34 -230 17z"/>
<path d="M3990 1360 c0 -5 5 -10 11 -10 5 0 7 5 4 10 -3 6 -8 10 -11 10 -2 0
-4 -4 -4 -10z"/>
<path d="M3637 256 c-4 -10 -7 -25 -6 -34 0 -11 4 -9 10 7 5 13 8 29 6 35 -2
5 -6 2 -10 -8z"/>
<path d="M3781 148 c-8 -13 -22 -48 -32 -78 -10 -31 -18 -45 -18 -32 -1 24
-20 29 -40 10 -11 -11 -12 -8 -7 14 3 14 9 33 12 42 4 10 1 16 -9 16 -8 0 -17
-5 -19 -11 -4 -13 -58 -21 -58 -9 0 5 8 14 18 20 14 9 13 10 -8 4 -27 -8 -79
-7 -122 2 -36 7 -76 -5 -57 -17 10 -6 7 -9 -12 -9 -34 0 -59 -29 -59 -68 l0
-32 250 0 c249 0 250 0 230 20 -11 11 -22 32 -26 47 -3 16 -11 45 -17 66 -12
37 -12 37 -26 15z m-181 -68 c0 -19 -35 -29 -53 -15 -14 10 -15 14 -5 18 22 9
58 7 58 -3z"/>
<path d="M3940 141 c-23 -6 -25 -12 -28 -74 l-3 -67 51 0 51 0 -5 63 c-2 34
-5 68 -5 75 -1 13 -21 14 -61 3z"/>
<path d="M3688 133 c7 -3 16 -2 19 1 4 3 -2 6 -13 5 -11 0 -14 -3 -6 -6z"/>
</g>
</svg>
